<svg width="112" height="85" viewBox="0 0 112 85" fill="none" xmlns="http://www.w3.org/2000/svg">
<path d="M18.8 4.512V10.848H8.79199V14.376H15.992V20.388H8.79199V30H0.799988V4.512H18.8Z" fill="black"/>
<path d="M41.163 19.668C41.163 20.22 41.127 20.748 41.055 21.252H28.203C28.323 23.004 29.055 23.88 30.399 23.88C31.263 23.88 31.887 23.484 32.271 22.692H40.731C40.443 24.132 39.831 25.428 38.895 26.58C37.983 27.708 36.819 28.608 35.403 29.28C34.011 29.928 32.475 30.252 30.795 30.252C28.779 30.252 26.979 29.832 25.395 28.992C23.835 28.152 22.611 26.952 21.723 25.392C20.859 23.808 20.427 21.96 20.427 19.848C20.427 17.736 20.859 15.9 21.723 14.34C22.611 12.756 23.835 11.544 25.395 10.704C26.979 9.864 28.779 9.444 30.795 9.444C32.811 9.444 34.599 9.864 36.159 10.704C37.743 11.52 38.967 12.696 39.831 14.232C40.719 15.768 41.163 17.58 41.163 19.668ZM33.063 17.76C33.063 17.088 32.847 16.584 32.415 16.248C31.983 15.888 31.443 15.708 30.795 15.708C29.379 15.708 28.551 16.392 28.311 17.76H33.063Z" fill="black"/>
<path d="M51.6826 3.36V30H43.6906V3.36H51.6826Z" fill="black"/>
<path d="M59.3242 8.076C57.9322 8.076 56.8162 7.704 55.9762 6.96C55.1362 6.216 54.7162 5.28 54.7162 4.152C54.7162 3 55.1362 2.052 55.9762 1.308C56.8162 0.539998 57.9322 0.155998 59.3242 0.155998C60.6922 0.155998 61.7962 0.539998 62.6362 1.308C63.4762 2.052 63.8962 3 63.8962 4.152C63.8962 5.28 63.4762 6.216 62.6362 6.96C61.7962 7.704 60.6922 8.076 59.3242 8.076ZM63.2842 9.696V30H55.2922V9.696H63.2842Z" fill="black"/>
<path d="M74.8857 12.468C75.3897 11.532 76.1097 10.8 77.0457 10.272C78.0057 9.72 79.1457 9.444 80.4657 9.444C82.0497 9.444 83.4777 9.864 84.7497 10.704C86.0217 11.52 87.0177 12.72 87.7377 14.304C88.4817 15.864 88.8537 17.712 88.8537 19.848C88.8537 21.984 88.4817 23.844 87.7377 25.428C87.0177 26.988 86.0217 28.188 84.7497 29.028C83.4777 29.844 82.0497 30.252 80.4657 30.252C79.1457 30.252 78.0057 29.988 77.0457 29.46C76.1097 28.908 75.3897 28.164 74.8857 27.228V39.72H66.8937V9.696H74.8857V12.468ZM80.7537 19.848C80.7537 18.768 80.4777 17.928 79.9257 17.328C79.3737 16.728 78.6657 16.428 77.8017 16.428C76.9377 16.428 76.2297 16.728 75.6777 17.328C75.1257 17.928 74.8497 18.768 74.8497 19.848C74.8497 20.928 75.1257 21.768 75.6777 22.368C76.2297 22.968 76.9377 23.268 77.8017 23.268C78.6657 23.268 79.3737 22.968 79.9257 22.368C80.4777 21.768 80.7537 20.928 80.7537 19.848Z" fill="black"/>
<path d="M111.018 19.668C111.018 20.22 110.982 20.748 110.91 21.252H98.0585C98.1785 23.004 98.9105 23.88 100.254 23.88C101.118 23.88 101.742 23.484 102.126 22.692H110.586C110.298 24.132 109.686 25.428 108.75 26.58C107.838 27.708 106.674 28.608 105.258 29.28C103.866 29.928 102.33 30.252 100.65 30.252C98.6345 30.252 96.8345 29.832 95.2505 28.992C93.6905 28.152 92.4665 26.952 91.5785 25.392C90.7145 23.808 90.2825 21.96 90.2825 19.848C90.2825 17.736 90.7145 15.9 91.5785 14.34C92.4665 12.756 93.6905 11.544 95.2505 10.704C96.8345 9.864 98.6345 9.444 100.65 9.444C102.666 9.444 104.454 9.864 106.014 10.704C107.598 11.52 108.822 12.696 109.686 14.232C110.574 15.768 111.018 17.58 111.018 19.668ZM102.918 17.76C102.918 17.088 102.702 16.584 102.27 16.248C101.838 15.888 101.298 15.708 100.65 15.708C99.2345 15.708 98.4065 16.392 98.1665 17.76H102.918Z" fill="black"/>
<path d="M13.616 84L8.82799 74.856H8.79199V84H0.799988V58.512H12.68C14.744 58.512 16.508 58.884 17.972 59.628C19.436 60.348 20.528 61.344 21.248 62.616C21.992 63.864 22.364 65.28 22.364 66.864C22.364 68.568 21.884 70.08 20.924 71.4C19.988 72.72 18.632 73.668 16.856 74.244L22.4 84H13.616ZM8.79199 69.528H11.96C12.728 69.528 13.304 69.36 13.688 69.024C14.072 68.664 14.264 68.112 14.264 67.368C14.264 66.696 14.06 66.168 13.652 65.784C13.268 65.4 12.704 65.208 11.96 65.208H8.79199V69.528Z" fill="black"/>
<path d="M44.5732 73.668C44.5732 74.22 44.5372 74.748 44.4652 75.252H31.6132C31.7332 77.004 32.4652 77.88 33.8092 77.88C34.6732 77.88 35.2972 77.484 35.6812 76.692H44.1412C43.8532 78.132 43.2412 79.428 42.3052 80.58C41.3932 81.708 40.2292 82.608 38.8132 83.28C37.4212 83.928 35.8852 84.252 34.2052 84.252C32.1892 84.252 30.3892 83.832 28.8052 82.992C27.2452 82.152 26.0212 80.952 25.1332 79.392C24.2692 77.808 23.8372 75.96 23.8372 73.848C23.8372 71.736 24.2692 69.9 25.1332 68.34C26.0212 66.756 27.2452 65.544 28.8052 64.704C30.3892 63.864 32.1892 63.444 34.2052 63.444C36.2212 63.444 38.0092 63.864 39.5692 64.704C41.1532 65.52 42.3772 66.696 43.2412 68.232C44.1292 69.768 44.5732 71.58 44.5732 73.668ZM36.4732 71.76C36.4732 71.088 36.2572 70.584 35.8252 70.248C35.3932 69.888 34.8532 69.708 34.2052 69.708C32.7892 69.708 31.9612 70.392 31.7212 71.76H36.4732Z" fill="black"/>
<path d="M51.1328 62.076C49.7408 62.076 48.6248 61.704 47.7848 60.96C46.9448 60.216 46.5248 59.28 46.5248 58.152C46.5248 57 46.9448 56.052 47.7848 55.308C48.6248 54.54 49.7408 54.156 51.1328 54.156C52.5008 54.156 53.6048 54.54 54.4448 55.308C55.2848 56.052 55.7048 57 55.7048 58.152C55.7048 59.28 55.2848 60.216 54.4448 60.96C53.6048 61.704 52.5008 62.076 51.1328 62.076ZM55.0928 63.696V84H47.1008V63.696H55.0928Z" fill="black"/>
<path d="M67.7383 84.252C65.8183 84.252 64.1143 83.94 62.6263 83.316C61.1623 82.692 59.9983 81.828 59.1343 80.724C58.2703 79.62 57.7783 78.372 57.6583 76.98H65.3263C65.4223 77.58 65.6743 78.024 66.0823 78.312C66.5143 78.6 67.0543 78.744 67.7023 78.744C68.1103 78.744 68.4343 78.66 68.6743 78.492C68.9143 78.3 69.0343 78.072 69.0343 77.808C69.0343 77.352 68.7823 77.028 68.2783 76.836C67.7743 76.644 66.9223 76.428 65.7223 76.188C64.2583 75.9 63.0463 75.588 62.0863 75.252C61.1503 74.916 60.3223 74.34 59.6023 73.524C58.9063 72.708 58.5583 71.58 58.5583 70.14C58.5583 68.892 58.8823 67.764 59.5303 66.756C60.2023 65.724 61.1863 64.92 62.4823 64.344C63.7783 63.744 65.3503 63.444 67.1983 63.444C69.9343 63.444 72.0703 64.116 73.6063 65.46C75.1663 66.804 76.1023 68.556 76.4143 70.716H69.3223C69.2023 70.164 68.9503 69.744 68.5663 69.456C68.1823 69.144 67.6663 68.988 67.0183 68.988C66.6103 68.988 66.2983 69.072 66.0823 69.24C65.8663 69.384 65.7583 69.612 65.7583 69.924C65.7583 70.332 66.0103 70.644 66.5143 70.86C67.0183 71.052 67.8223 71.256 68.9263 71.472C70.3903 71.76 71.6263 72.084 72.6343 72.444C73.6423 72.804 74.5183 73.428 75.2623 74.316C76.0063 75.18 76.3783 76.38 76.3783 77.916C76.3783 79.116 76.0303 80.196 75.3343 81.156C74.6383 82.116 73.6303 82.872 72.3103 83.424C71.0143 83.976 69.4903 84.252 67.7383 84.252Z" fill="black"/>
</svg>
